STARTFONT 2.3
FONT -FontForge-Hanalei-Book-R-Normal--11-110-72-72-P-55-ISO10646-1
SIZE 11 72 72  4
FONTBOUNDINGBOX 15 15 -1 -3
COMMENT "Generated by fontforge, http://fontforge.sourceforge.net"
COMMENT "Copyright (c) 2012 by Brian J. Bonislawsky DBA Astigmatic (AOETI) (astigma@astigmatic.com), with ReservedFont Name "Hanalei""
STARTPROPERTIES 40
FOUNDRY "FontForge"
FAMILY_NAME "Hanalei"
WEIGHT_NAME "Book"
SLANT "R"
SETWIDTH_NAME "Normal"
ADD_STYLE_NAME ""
PIXEL_SIZE 11
POINT_SIZE 110
RESOLUTION_X 72
RESOLUTION_Y 72
SPACING "P"
AVERAGE_WIDTH 55
CHARSET_REGISTRY "ISO10646"
CHARSET_ENCODING "1"
FONTNAME_REGISTRY ""
CHARSET_COLLECTIONS "ISO8859-2 ISO8859-9 ISO8859-4 ISO10646-1"
BITS_PER_PIXEL 4
FONT_NAME "Hanalei-Regular"
FACE_NAME "Hanalei"
COPYRIGHT "Copyright (c) 2012 by Brian J. Bonislawsky DBA Astigmatic (AOETI) (astigma@astigmatic.com), with ReservedFont Name "Hanalei""
FONT_VERSION "1.000"
FONT_ASCENT 9
FONT_DESCENT 2
UNDERLINE_POSITION -1
UNDERLINE_THICKNESS 1
X_HEIGHT 7
CAP_HEIGHT 7
RAW_ASCENT 799
RAW_DESCENT 200
NORM_SPACE 2
RELATIVE_WEIGHT 40
RELATIVE_SETWIDTH 50
SUPERSCRIPT_X 0
SUPERSCRIPT_Y 5
SUPERSCRIPT_SIZE 7
SUBSCRIPT_X 0
SUBSCRIPT_Y 1
SUBSCRIPT_SIZE 7
AVG_LOWERCASE_WIDTH 59
AVG_UPPERCASE_WIDTH 58
ENDPROPERTIES
CHARS 366
STARTCHAR space
ENCODING 32
SWIDTH 200 0
DWIDTH 2 0
BBX 1 1 0 0
BITMAP
00
ENDCHAR
STARTCHAR exclam
ENCODING 33
SWIDTH 257 0
DWIDTH 3 0
BBX 3 9 0 -1
BITMAP
3420
4040
4040
5340
4030
4430
3410
4410
0200
ENDCHAR
STARTCHAR quotedbl
ENCODING 34
SWIDTH 476 0
DWIDTH 5 0
BBX 5 6 0 3
BITMAP
010000
534650
424540
514440
405340
241430
ENDCHAR
STARTCHAR numbersign
ENCODING 35
SWIDTH 1076 0
DWIDTH 12 0
BBX 12 8 0 0
BITMAP
246044254541
406342420545
645674467604
405362325624
408163454525
546644354542
404508144340
444368253350
ENDCHAR
STARTCHAR dollar
ENCODING 36
SWIDTH 453 0
DWIDTH 5 0
BBX 5 11 0 -2
BITMAP
024200
040500
056440
513440
659200
343340
029360
533550
454400
040300
014100
ENDCHAR
STARTCHAR percent
ENCODING 37
SWIDTH 889 0
DWIDTH 10 0
BBX 10 8 0 0
BITMAP
2332030000
4536313000
3333431000
6443452220
2344335443
0001443453
0003135433
0002415372
ENDCHAR
STARTCHAR ampersand
ENCODING 38
SWIDTH 627 0
DWIDTH 7 0
BBX 7 9 0 -1
BITMAP
05845500
05256700
04171400
03734000
14505220
51875340
75450640
44454400
10000000
ENDCHAR
STARTCHAR quotesingle
ENCODING 39
SWIDTH 246 0
DWIDTH 3 0
BBX 3 6 0 3
BITMAP
0100
5330
4230
5140
4040
2410
ENDCHAR
STARTCHAR parenleft
ENCODING 40
SWIDTH 387 0
DWIDTH 4 0
BBX 6 10 -1 -1
BITMAP
000410
003250
007130
041600
142300
086300
033610
007050
001423
000350
ENDCHAR
STARTCHAR parenright
ENCODING 41
SWIDTH 386 0
DWIDTH 4 0
BBX 5 10 0 -1
BITMAP
041000
514000
136200
052500
014230
017720
062400
416000
422000
340000
ENDCHAR
STARTCHAR asterisk
ENCODING 42
SWIDTH 517 0
DWIDTH 6 0
BBX 6 6 0 2
BITMAP
005400
345552
453543
045620
054550
010000
ENDCHAR
STARTCHAR plus
ENCODING 43
SWIDTH 458 0
DWIDTH 5 0
BBX 5 5 0 1
BITMAP
034400
355630
403040
264630
024300
ENDCHAR
STARTCHAR comma
ENCODING 44
SWIDTH 228 0
DWIDTH 3 0
BBX 4 4 -1 -2
BITMAP
0140
0413
3150
0410
ENDCHAR
STARTCHAR hyphen
ENCODING 45
SWIDTH 465 0
DWIDTH 5 0
BBX 5 3 0 2
BITMAP
345440
403040
244320
ENDCHAR
STARTCHAR period
ENCODING 46
SWIDTH 202 0
DWIDTH 2 0
BBX 2 3 0 -1
BITMAP
34
55
11
ENDCHAR
STARTCHAR slash
ENCODING 47
SWIDTH 453 0
DWIDTH 5 0
BBX 5 8 0 0
BITMAP
001520
004050
007230
031600
070400
145100
504000
443000
ENDCHAR
STARTCHAR zero
ENCODING 48
SWIDTH 646 0
DWIDTH 7 0
BBX 8 8 0 0
BITMAP
00563000
04244100
15462500
63407050
63305432
42475630
05622300
00444000
ENDCHAR
STARTCHAR one
ENCODING 49
SWIDTH 400 0
DWIDTH 4 0
BBX 4 9 0 -1
BITMAP
0274
4244
4365
2254
0044
0076
0044
0156
0011
ENDCHAR
STARTCHAR two
ENCODING 50
SWIDTH 502 0
DWIDTH 6 0
BBX 6 9 0 -1
BITMAP
015400
141630
516232
341753
017251
240600
628451
566452
001010
ENDCHAR
STARTCHAR three
ENCODING 51
SWIDTH 456 0
DWIDTH 5 0
BBX 5 9 0 -1
BITMAP
344300
400530
268540
157500
360510
037480
444150
534300
110000
ENDCHAR
STARTCHAR four
ENCODING 52
SWIDTH 514 0
DWIDTH 6 0
BBX 7 9 -1 -1
BITMAP
00035400
00135400
00727500
04155500
14347340
03746530
00004400
00024600
00001100
ENDCHAR
STARTCHAR five
ENCODING 53
SWIDTH 500 0
DWIDTH 6 0
BBX 6 8 0 0
BITMAP
245440
414240
426320
647470
345623
000322
547563
546460
ENDCHAR
STARTCHAR six
ENCODING 54
SWIDTH 520 0
DWIDTH 6 0
BBX 6 9 0 -1
BITMAP
034200
040400
075100
135510
415172
436845
425143
572430
003000
ENDCHAR
STARTCHAR seven
ENCODING 55
SWIDTH 423 0
DWIDTH 5 0
BBX 5 8 0 0
BITMAP
445420
403050
447450
006520
032400
054400
042200
156000
ENDCHAR
STARTCHAR eight
ENCODING 56
SWIDTH 527 0
DWIDTH 6 0
BBX 6 9 0 -1
BITMAP
244542
501544
647614
063440
063340
226440
426513
474857
010000
ENDCHAR
STARTCHAR nine
ENCODING 57
SWIDTH 500 0
DWIDTH 6 0
BBX 6 9 0 -1
BITMAP
002530
445055
535742
727350
055140
026600
050500
053300
002000
ENDCHAR
STARTCHAR colon
ENCODING 58
SWIDTH 245 0
DWIDTH 3 0
BBX 3 7 0 -1
BITMAP
3410
4410
0100
0000
2410
4320
0200
ENDCHAR
STARTCHAR semicolon
ENCODING 59
SWIDTH 270 0
DWIDTH 3 0
BBX 4 8 -1 -2
BITMAP
0143
0244
0010
0000
0051
0404
1340
0320
ENDCHAR
STARTCHAR less
ENCODING 60
SWIDTH 445 0
DWIDTH 5 0
BBX 5 7 0 0
BITMAP
001520
056150
504400
656100
344430
014440
000100
ENDCHAR
STARTCHAR equal
ENCODING 61
SWIDTH 484 0
DWIDTH 5 0
BBX 5 6 0 1
BITMAP
134220
404250
344440
245440
403040
244430
ENDCHAR
STARTCHAR greater
ENCODING 62
SWIDTH 445 0
DWIDTH 5 0
BBX 5 7 0 0
BITMAP
351000
516400
044150
026550
434430
444000
010000
ENDCHAR
STARTCHAR question
ENCODING 63
SWIDTH 455 0
DWIDTH 5 0
BBX 5 9 0 -1
BITMAP
343000
404440
247360
061440
065100
065000
143000
144000
020000
ENDCHAR
STARTCHAR at
ENCODING 64
SWIDTH 812 0
DWIDTH 9 0
BBX 9 9 0 -1
BITMAP
1546467400
4645444300
5443546500
4344637220
4455315430
4471536440
4355434520
2733400000
0023200000
ENDCHAR
STARTCHAR A
ENCODING 65
SWIDTH 507 0
DWIDTH 6 0
BBX 6 8 0 0
BITMAP
034200
041710
075130
136440
415663
536404
426645
561444
ENDCHAR
STARTCHAR B
ENCODING 66
SWIDTH 533 0
DWIDTH 6 0
BBX 6 10 0 -1
BITMAP
010000
364510
462444
636745
408344
406552
538706
645375
713510
041000
ENDCHAR
STARTCHAR C
ENCODING 67
SWIDTH 515 0
DWIDTH 6 0
BBX 6 9 0 -1
BITMAP
154542
231304
287442
404000
524000
424021
416724
565543
030000
ENDCHAR
STARTCHAR D
ENCODING 68
SWIDTH 520 0
DWIDTH 6 0
BBX 6 9 0 -1
BITMAP
375100
450520
547351
405505
404556
538532
404330
547200
002000
ENDCHAR
STARTCHAR E
ENCODING 69
SWIDTH 490 0
DWIDTH 5 0
BBX 6 8 0 0
BITMAP
345542
404314
536430
406420
406340
536200
406652
546451
ENDCHAR
STARTCHAR F
ENCODING 70
SWIDTH 475 0
DWIDTH 5 0
BBX 6 8 0 0
BITMAP
345542
404314
536430
406420
406340
535200
404000
544000
ENDCHAR
STARTCHAR G
ENCODING 71
SWIDTH 557 0
DWIDTH 6 0
BBX 6 9 0 -1
BITMAP
154542
231304
287442
404043
524134
424165
416744
565565
030000
ENDCHAR
STARTCHAR H
ENCODING 72
SWIDTH 611 0
DWIDTH 7 0
BBX 7 8 0 0
BITMAP
34305510
40404400
63407500
40404510
40637440
53814540
40745400
54415600
ENDCHAR
STARTCHAR I
ENCODING 73
SWIDTH 266 0
DWIDTH 3 0
BBX 3 8 0 0
BITMAP
3430
4040
6340
4040
4040
5340
4040
5440
ENDCHAR
STARTCHAR J
ENCODING 74
SWIDTH 484 0
DWIDTH 5 0
BBX 6 9 -1 -1
BITMAP
000055
000044
000175
000145
055044
152665
027254
003266
000410
ENDCHAR
STARTCHAR K
ENCODING 75
SWIDTH 541 0
DWIDTH 6 0
BBX 7 9 0 -1
BITMAP
34303200
40423410
53672400
40706000
40644000
53875000
40441400
54434400
00001000
ENDCHAR
STARTCHAR L
ENCODING 76
SWIDTH 467 0
DWIDTH 5 0
BBX 6 8 0 0
BITMAP
343000
404000
634000
404000
404000
535000
409443
548453
ENDCHAR
STARTCHAR M
ENCODING 77
SWIDTH 733 0
DWIDTH 8 0
BBX 9 8 0 0
BITMAP
0441153000
0435407000
2654627100
3165525400
5081562400
5365666500
4224445400
6615526610
ENDCHAR
STARTCHAR N
ENCODING 78
SWIDTH 598 0
DWIDTH 7 0
BBX 7 8 0 0
BITMAP
34604410
40624210
63557510
40545310
40816310
54755510
40440800
54436810
ENDCHAR
STARTCHAR O
ENCODING 79
SWIDTH 612 0
DWIDTH 7 0
BBX 7 9 0 -1
BITMAP
15455500
23130800
28748710
40405310
52404130
42406640
41673450
56554830
03000000
ENDCHAR
STARTCHAR P
ENCODING 80
SWIDTH 513 0
DWIDTH 6 0
BBX 6 9 0 -1
BITMAP
265400
461444
537535
418535
404440
537200
404000
524000
010000
ENDCHAR
STARTCHAR Q
ENCODING 81
SWIDTH 612 0
DWIDTH 7 0
BBX 7 10 0 -2
BITMAP
15455500
23130800
28748710
40405310
52404130
42406640
41673450
56555830
03404000
00242000
ENDCHAR
STARTCHAR R
ENCODING 82
SWIDTH 532 0
DWIDTH 6 0
BBX 6 9 0 -1
BITMAP
264300
460544
527524
527536
408360
538451
404505
514055
130010
ENDCHAR
STARTCHAR S
ENCODING 83
SWIDTH 442 0
DWIDTH 5 0
BBX 5 9 0 -1
BITMAP
246440
664450
506000
174100
041500
007320
549150
545630
100000
ENDCHAR
STARTCHAR T
ENCODING 84
SWIDTH 453 0
DWIDTH 5 0
BBX 6 8 -1 0
BITMAP
054645
142435
036252
005440
004040
005450
004040
005440
ENDCHAR
STARTCHAR U
ENCODING 85
SWIDTH 583 0
DWIDTH 6 0
BBX 7 9 0 -1
BITMAP
15414400
22412400
54416500
40413400
52404400
42409700
41771800
55557810
03000000
ENDCHAR
STARTCHAR V
ENCODING 86
SWIDTH 506 0
DWIDTH 6 0
BBX 6 9 0 -1
BITMAP
340140
540404
413622
634451
225540
075240
044030
056520
002000
ENDCHAR
STARTCHAR W
ENCODING 87
SWIDTH 735 0
DWIDTH 8 0
BBX 8 9 0 -1
BITMAP
34000043
54056134
42492624
63754824
22715614
07537642
04444440
05764350
01200210
ENDCHAR
STARTCHAR X
ENCODING 88
SWIDTH 483 0
DWIDTH 5 0
BBX 6 8 0 0
BITMAP
240230
523442
318150
084420
060710
246240
515332
560551
ENDCHAR
STARTCHAR Y
ENCODING 89
SWIDTH 484 0
DWIDTH 5 0
BBX 7 8 -1 0
BITMAP
03202410
23404050
05277410
01640500
00372200
00426000
00504000
00551000
ENDCHAR
STARTCHAR Z
ENCODING 90
SWIDTH 458 0
DWIDTH 5 0
BBX 6 8 -1 0
BITMAP
024543
040317
014A36
002351
007040
032610
141844
057544
ENDCHAR
STARTCHAR bracketleft
ENCODING 91
SWIDTH 420 0
DWIDTH 5 0
BBX 5 10 0 -1
BITMAP
001410
375040
406410
524000
514000
404000
634000
405210
525240
154420
ENDCHAR
STARTCHAR backslash
ENCODING 92
SWIDTH 453 0
DWIDTH 5 0
BBX 5 8 0 0
BITMAP
251000
504000
327000
061300
040700
015410
004050
003430
ENDCHAR
STARTCHAR bracketright
ENCODING 93
SWIDTH 420 0
DWIDTH 5 0
BBX 5 10 0 -1
BITMAP
330000
417610
345210
004430
005330
004220
005530
115130
526240
444400
ENDCHAR
STARTCHAR asciicircum
ENCODING 94
SWIDTH 353 0
DWIDTH 4 0
BBX 4 4 0 4
BITMAP
0110
1480
4434
3332
ENDCHAR
STARTCHAR underscore
ENCODING 95
SWIDTH 499 0
DWIDTH 5 0
BBX 5 3 0 -3
BITMAP
011010
425560
345450
ENDCHAR
STARTCHAR grave
ENCODING 96
SWIDTH 183 0
DWIDTH 2 0
BBX 2 3 0 8
BITMAP
43
44
25
ENDCHAR
STARTCHAR a
ENCODING 97
SWIDTH 507 0
DWIDTH 6 0
BBX 6 8 0 0
BITMAP
034200
041710
075130
136440
415663
536404
426645
561444
ENDCHAR
STARTCHAR b
ENCODING 98
SWIDTH 533 0
DWIDTH 6 0
BBX 6 10 0 -1
BITMAP
010000
364510
462444
636745
408344
406552
538706
645375
713510
041000
ENDCHAR
STARTCHAR c
ENCODING 99
SWIDTH 515 0
DWIDTH 6 0
BBX 6 9 0 -1
BITMAP
154542
231304
287442
404000
524000
424021
416724
565543
030000
ENDCHAR
STARTCHAR d
ENCODING 100
SWIDTH 520 0
DWIDTH 6 0
BBX 6 9 0 -1
BITMAP
375100
450520
547351
405505
404556
538532
404330
547200
002000
ENDCHAR
STARTCHAR e
ENCODING 101
SWIDTH 490 0
DWIDTH 5 0
BBX 6 8 0 0
BITMAP
345542
404314
536430
406420
406340
536200
406652
546451
ENDCHAR
STARTCHAR f
ENCODING 102
SWIDTH 475 0
DWIDTH 5 0
BBX 6 8 0 0
BITMAP
345542
404314
536430
406420
406340
535200
404000
544000
ENDCHAR
STARTCHAR g
ENCODING 103
SWIDTH 557 0
DWIDTH 6 0
BBX 6 9 0 -1
BITMAP
154542
231304
287442
404043
524134
424165
416744
565565
030000
ENDCHAR
STARTCHAR h
ENCODING 104
SWIDTH 611 0
DWIDTH 7 0
BBX 7 8 0 0
BITMAP
34305510
40404400
63407500
40404510
40637440
53814540
40745400
54415600
ENDCHAR
STARTCHAR i
ENCODING 105
SWIDTH 266 0
DWIDTH 3 0
BBX 3 8 0 0
BITMAP
3430
4040
6340
4040
4040
5340
4040
5440
ENDCHAR
STARTCHAR j
ENCODING 106
SWIDTH 482 0
DWIDTH 5 0
BBX 6 9 -1 -1
BITMAP
000055
000044
000175
000145
055044
152665
027254
003266
000410
ENDCHAR
STARTCHAR k
ENCODING 107
SWIDTH 541 0
DWIDTH 6 0
BBX 7 9 0 -1
BITMAP
34303200
40423410
53672400
40706000
40644000
53875000
40441400
54434400
00001000
ENDCHAR
STARTCHAR l
ENCODING 108
SWIDTH 467 0
DWIDTH 5 0
BBX 6 8 0 0
BITMAP
343000
404000
634000
404000
404000
535000
409443
548453
ENDCHAR
STARTCHAR m
ENCODING 109
SWIDTH 733 0
DWIDTH 8 0
BBX 9 8 0 0
BITMAP
0441153000
0435407000
2654627100
3165525400
5081562400
5365666500
4224445400
6615526610
ENDCHAR
STARTCHAR n
ENCODING 110
SWIDTH 598 0
DWIDTH 7 0
BBX 7 8 0 0
BITMAP
34604410
40624210
63557510
40545310
40816310
54755510
40440800
54436810
ENDCHAR
STARTCHAR o
ENCODING 111
SWIDTH 612 0
DWIDTH 7 0
BBX 7 9 0 -1
BITMAP
15455500
23130800
28748710
40405310
52404130
42406640
41673450
56554830
03000000
ENDCHAR
STARTCHAR p
ENCODING 112
SWIDTH 513 0
DWIDTH 6 0
BBX 6 9 0 -1
BITMAP
265400
461444
537535
418535
404440
537200
404000
524000
010000
ENDCHAR
STARTCHAR q
ENCODING 113
SWIDTH 612 0
DWIDTH 7 0
BBX 7 10 0 -2
BITMAP
15455500
23130800
28748710
40405310
52404130
42406640
41673450
56555830
03404000
00242000
ENDCHAR
STARTCHAR r
ENCODING 114
SWIDTH 532 0
DWIDTH 6 0
BBX 6 9 0 -1
BITMAP
264300
460544
527524
527536
408360
538451
404505
514055
130010
ENDCHAR
STARTCHAR s
ENCODING 115
SWIDTH 442 0
DWIDTH 5 0
BBX 5 9 0 -1
BITMAP
246440
664450
506000
174100
041500
007320
549150
545630
100000
ENDCHAR
STARTCHAR t
ENCODING 116
SWIDTH 453 0
DWIDTH 5 0
BBX 6 8 -1 0
BITMAP
054645
142435
036252
005440
004040
005450
004040
005440
ENDCHAR
STARTCHAR u
ENCODING 117
SWIDTH 583 0
DWIDTH 6 0
BBX 7 9 0 -1
BITMAP
15414400
22412400
54416500
40413400
52404400
42409700
41771800
55557810
03000000
ENDCHAR
STARTCHAR v
ENCODING 118
SWIDTH 506 0
DWIDTH 6 0
BBX 6 9 0 -1
BITMAP
340140
540404
413622
634451
225540
075240
044030
056520
002000
ENDCHAR
STARTCHAR w
ENCODING 119
SWIDTH 735 0
DWIDTH 8 0
BBX 8 9 0 -1
BITMAP
34000043
54056134
42492624
63754824
22715614
07537642
04444440
05764350
01200210
ENDCHAR
STARTCHAR x
ENCODING 120
SWIDTH 483 0
DWIDTH 5 0
BBX 6 8 0 0
BITMAP
240230
523442
318150
084420
060710
246240
515332
560551
ENDCHAR
STARTCHAR y
ENCODING 121
SWIDTH 484 0
DWIDTH 5 0
BBX 7 8 -1 0
BITMAP
03202410
23404050
05277410
01640500
00372200
00426000
00504000
00551000
ENDCHAR
STARTCHAR z
ENCODING 122
SWIDTH 458 0
DWIDTH 5 0
BBX 6 8 -1 0
BITMAP
024543
040317
014A36
002351
007040
032610
141844
057544
ENDCHAR
STARTCHAR braceleft
ENCODING 123
SWIDTH 473 0
DWIDTH 5 0
BBX 6 10 0 -1
BITMAP
000230
056241
042640
043400
635620
534800
044400
052500
154260
026450
ENDCHAR
STARTCHAR bar
ENCODING 124
SWIDTH 263 0
DWIDTH 3 0
BBX 3 10 0 -1
BITMAP
1510
4040
5040
6440
4040
4040
5440
4040
4040
2510
ENDCHAR
STARTCHAR braceright
ENCODING 125
SWIDTH 473 0
DWIDTH 5 0
BBX 6 10 0 -1
BITMAP
320000
426600
354400
041600
065442
075442
043600
033400
524230
445300
ENDCHAR
STARTCHAR asciitilde
ENCODING 126
SWIDTH 456 0
DWIDTH 5 0
BBX 5 4 0 2
BITMAP
034330
237440
544810
112200
ENDCHAR
STARTCHAR nonbreakingspace
ENCODING 160
SWIDTH 200 0
DWIDTH 2 0
BBX 1 1 0 0
BITMAP
00
ENDCHAR
STARTCHAR exclamdown
ENCODING 161
SWIDTH 259 0
DWIDTH 3 0
BBX 3 9 0 -1
BITMAP
1420
4240
1610
4040
4040
4450
4040
5240
0200
ENDCHAR
STARTCHAR cent
ENCODING 162
SWIDTH 480 0
DWIDTH 5 0
BBX 5 11 0 -2
BITMAP
004300
003410
028550
530550
455200
633000
416300
473560
017550
013400
004200
ENDCHAR
STARTCHAR sterling
ENCODING 163
SWIDTH 594 0
DWIDTH 7 0
BBX 7 8 0 0
BITMAP
00330000
03514400
04464400
47464000
44044000
27463100
04075430
04474420
ENDCHAR
STARTCHAR currency
ENCODING 164
SWIDTH 640 0
DWIDTH 7 0
BBX 7 7 0 1
BITMAP
02000100
43475340
35742630
24265540
24566230
44533640
45376540
ENDCHAR
STARTCHAR yen
ENCODING 165
SWIDTH 575 0
DWIDTH 6 0
BBX 6 8 0 0
BITMAP
140042
523045
325814
061543
065753
143534
053610
034400
ENDCHAR
STARTCHAR brokenbar
ENCODING 166
SWIDTH 258 0
DWIDTH 3 0
BBX 3 11 0 -2
BITMAP
3420
4040
5340
4040
4430
2410
4040
5340
4040
5240
0200
ENDCHAR
STARTCHAR section
ENCODING 167
SWIDTH 474 0
DWIDTH 5 0
BBX 5 9 0 -1
BITMAP
346440
544350
406530
165560
408240
573350
347460
435440
110000
ENDCHAR
STARTCHAR dieresis
ENCODING 168
SWIDTH 351 0
DWIDTH 4 0
BBX 4 2 0 8
BITMAP
5555
4443
ENDCHAR
STARTCHAR copyright
ENCODING 169
SWIDTH 719 0
DWIDTH 8 0
BBX 8 9 0 -1
BITMAP
25464683
46444544
55244364
44564234
44443154
44385344
43445454
48545452
00000010
ENDCHAR
STARTCHAR ordfeminine
ENCODING 170
SWIDTH 455 0
DWIDTH 5 0
BBX 5 8 0 0
BITMAP
035400
053400
234140
458340
822340
683650
243420
343420
ENDCHAR
STARTCHAR guillemotleft
ENCODING 171
SWIDTH 689 0
DWIDTH 8 0
BBX 8 6 0 1
BITMAP
00300030
04242422
50434241
65417530
15153332
00410240
ENDCHAR
STARTCHAR logicalnot
ENCODING 172
SWIDTH 591 0
DWIDTH 7 0
BBX 7 5 0 0
BITMAP
34454300
40034510
34445300
00004300
00003500
ENDCHAR
STARTCHAR uni00AD
ENCODING 173
SWIDTH 465 0
DWIDTH 5 0
BBX 5 3 0 2
BITMAP
345440
403040
244320
ENDCHAR
STARTCHAR registered
ENCODING 174
SWIDTH 719 0
DWIDTH 8 0
BBX 8 9 0 -1
BITMAP
25464683
46444544
55254264
44454434
44440154
44450144
43445454
48545452
00000010
ENDCHAR
STARTCHAR macron
ENCODING 175
SWIDTH 263 0
DWIDTH 3 0
BBX 3 2 0 8
BITMAP
4440
5440
ENDCHAR
STARTCHAR degree
ENCODING 176
SWIDTH 333 0
DWIDTH 4 0
BBX 4 4 0 4
BITMAP
0330
4352
5664
3442
ENDCHAR
STARTCHAR plusminus
ENCODING 177
SWIDTH 464 0
DWIDTH 5 0
BBX 5 8 0 -2
BITMAP
024400
355640
403040
264730
024300
446440
424350
122110
ENDCHAR
STARTCHAR twosuperior
ENCODING 178
SWIDTH 324 0
DWIDTH 4 0
BBX 4 5 0 3
BITMAP
3330
4351
1340
4242
3531
ENDCHAR
STARTCHAR threesuperior
ENCODING 179
SWIDTH 332 0
DWIDTH 4 0
BBX 4 5 0 3
BITMAP
3330
4453
0523
3533
3341
ENDCHAR
STARTCHAR acute
ENCODING 180
SWIDTH 202 0
DWIDTH 2 0
BBX 3 3 0 8
BITMAP
1500
4410
5200
ENDCHAR
STARTCHAR mu
ENCODING 181
SWIDTH 582 0
DWIDTH 6 0
BBX 7 10 0 -2
BITMAP
14314300
31431400
31424500
54424500
40404400
40409700
54762800
40666810
40501100
24100000
ENDCHAR
STARTCHAR paragraph
ENCODING 182
SWIDTH 556 0
DWIDTH 6 0
BBX 6 9 0 -1
BITMAP
004563
444164
535724
535824
044504
003845
000404
000515
000020
ENDCHAR
STARTCHAR periodcentered
ENCODING 183
SWIDTH 215 0
DWIDTH 2 0
BBX 2 2 0 3
BITMAP
46
45
ENDCHAR
STARTCHAR cedilla
ENCODING 184
SWIDTH 237 0
DWIDTH 3 0
BBX 3 4 0 -3
BITMAP
0440
0440
6740
3100
ENDCHAR
STARTCHAR onesuperior
ENCODING 185
SWIDTH 286 0
DWIDTH 3 0
BBX 3 5 0 3
BITMAP
0330
4250
4530
0330
0330
ENDCHAR
STARTCHAR ordmasculine
ENCODING 186
SWIDTH 476 0
DWIDTH 5 0
BBX 5 8 0 0
BITMAP
345440
403460
655530
433550
655250
345440
253420
253430
ENDCHAR
STARTCHAR guillemotright
ENCODING 187
SWIDTH 689 0
DWIDTH 8 0
BBX 8 6 0 1
BITMAP
13002100
52405330
24054314
05562554
51515240
14003300
ENDCHAR
STARTCHAR onequarter
ENCODING 188
SWIDTH 790 0
DWIDTH 9 0
BBX 9 8 0 0
BITMAP
0330310000
3250340000
3533130000
0334411100
0243303610
0005543430
0022364430
0023212630
ENDCHAR
STARTCHAR onehalf
ENCODING 189
SWIDTH 771 0
DWIDTH 8 0
BBX 9 9 0 -1
BITMAP
0330310000
3250340000
3533130000
0334420000
0243343500
0005535600
0022332500
0023266320
0000000100
ENDCHAR
STARTCHAR threequarters
ENCODING 190
SWIDTH 817 0
DWIDTH 9 0
BBX 9 8 0 0
BITMAP
3330220000
4354340000
0533430000
3535340200
3344123430
0004532630
0003345160
0004312640
ENDCHAR
STARTCHAR questiondown
ENCODING 191
SWIDTH 455 0
DWIDTH 5 0
BBX 5 9 0 -1
BITMAP
003410
004510
003400
006400
141700
747200
514450
035450
000100
ENDCHAR
STARTCHAR Agrave
ENCODING 192
SWIDTH 507 0
DWIDTH 6 0
BBX 6 11 0 0
BITMAP
035000
033100
005200
034200
041710
075130
136440
415663
536404
426645
561444
ENDCHAR
STARTCHAR Aacute
ENCODING 193
SWIDTH 507 0
DWIDTH 6 0
BBX 6 11 0 0
BITMAP
000330
001440
003500
034200
041710
075130
136440
415663
536404
426645
561444
ENDCHAR
STARTCHAR Acircumflex
ENCODING 194
SWIDTH 507 0
DWIDTH 6 0
BBX 6 11 0 0
BITMAP
015700
044430
033430
034200
041710
075130
136440
415663
536404
426645
561444
ENDCHAR
STARTCHAR Atilde
ENCODING 195
SWIDTH 507 0
DWIDTH 6 0
BBX 6 11 0 0
BITMAP
047552
236540
153530
034200
041710
075130
136440
415663
536404
426645
561444
ENDCHAR
STARTCHAR Adieresis
ENCODING 196
SWIDTH 507 0
DWIDTH 6 0
BBX 6 10 0 0
BITMAP
055550
054430
034200
041710
075130
136440
415663
536404
426645
561444
ENDCHAR
STARTCHAR Aring
ENCODING 197
SWIDTH 507 0
DWIDTH 6 0
BBX 6 12 0 0
BITMAP
004400
043520
055640
034420
034200
041710
075130
136440
415663
536404
426645
561444
ENDCHAR
STARTCHAR AE
ENCODING 198
SWIDTH 797 0
DWIDTH 9 0
BBX 10 8 -1 0
BITMAP
0001455543
0004054314
0016376432
0041735440
0163634340
0425266210
1435535644
1550346544
ENDCHAR
STARTCHAR Ccedilla
ENCODING 199
SWIDTH 515 0
DWIDTH 6 0
BBX 6 11 0 -3
BITMAP
154542
231304
287442
404000
524000
424021
416724
565643
033410
044810
013000
ENDCHAR
STARTCHAR Egrave
ENCODING 200
SWIDTH 490 0
DWIDTH 5 0
BBX 6 11 0 0
BITMAP
025000
023300
004300
345542
404314
536430
406420
406340
536200
406652
546451
ENDCHAR
STARTCHAR Eacute
ENCODING 201
SWIDTH 490 0
DWIDTH 5 0
BBX 6 11 0 0
BITMAP
000510
004320
004300
345542
404314
536430
406420
406340
536200
406652
546451
ENDCHAR
STARTCHAR Ecircumflex
ENCODING 202
SWIDTH 490 0
DWIDTH 5 0
BBX 6 11 0 0
BITMAP
015700
044330
043430
345542
404314
536430
406420
406340
536200
406652
546451
ENDCHAR
STARTCHAR Edieresis
ENCODING 203
SWIDTH 490 0
DWIDTH 5 0
BBX 6 10 0 0
BITMAP
054550
053430
345542
404314
536430
406420
406340
536200
406652
546451
ENDCHAR
STARTCHAR Igrave
ENCODING 204
SWIDTH 266 0
DWIDTH 3 0
BBX 3 11 0 0
BITMAP
4300
4400
2400
3430
4040
6340
4040
4040
5340
4040
5440
ENDCHAR
STARTCHAR Iacute
ENCODING 205
SWIDTH 266 0
DWIDTH 3 0
BBX 4 11 0 0
BITMAP
0051
0432
0430
3430
4040
6340
4040
4040
5340
4040
5440
ENDCHAR
STARTCHAR Icircumflex
ENCODING 206
SWIDTH 266 0
DWIDTH 3 0
BBX 4 11 0 0
BITMAP
2650
4631
5252
3430
4040
6340
4040
4040
5340
4040
5440
ENDCHAR
STARTCHAR Idieresis
ENCODING 207
SWIDTH 266 0
DWIDTH 3 0
BBX 5 10 -1 0
BITMAP
346440
144420
034300
040400
063400
040400
040400
053400
040400
054400
ENDCHAR
STARTCHAR Eth
ENCODING 208
SWIDTH 669 0
DWIDTH 7 0
BBX 9 9 -1 -1
BITMAP
0005650000
0006315000
0006554500
1535634140
1533725550
0006583510
0004405100
0006660000
0000110000
ENDCHAR
STARTCHAR Ntilde
ENCODING 209
SWIDTH 598 0
DWIDTH 7 0
BBX 7 11 0 0
BITMAP
00584500
03355400
03447000
34604410
40624210
63557510
40545310
40816310
54755510
40440800
54436810
ENDCHAR
STARTCHAR Ograve
ENCODING 210
SWIDTH 612 0
DWIDTH 7 0
BBX 7 12 0 -1
BITMAP
00340000
00440000
00051000
15455500
23130800
28748710
40405310
52404130
42406640
41673450
56554830
03000000
ENDCHAR
STARTCHAR Oacute
ENCODING 211
SWIDTH 612 0
DWIDTH 7 0
BBX 7 12 0 -1
BITMAP
00005100
00043200
00053000
15455500
23130800
28748710
40405310
52404130
42406640
41673450
56554830
03000000
ENDCHAR
STARTCHAR Ocircumflex
ENCODING 212
SWIDTH 612 0
DWIDTH 7 0
BBX 7 12 0 -1
BITMAP
00364000
01463100
00525100
15455500
23130800
28748710
40405310
52404130
42406640
41673450
56554830
03000000
ENDCHAR
STARTCHAR Otilde
ENCODING 213
SWIDTH 612 0
DWIDTH 7 0
BBX 7 12 0 -1
BITMAP
00484500
03355400
02436100
15455500
23130800
28748710
40405310
52404130
42406640
41673450
56554830
03000000
ENDCHAR
STARTCHAR Odieresis
ENCODING 214
SWIDTH 612 0
DWIDTH 7 0
BBX 7 11 0 -1
BITMAP
04555200
03535000
15455500
23130800
28748710
40405310
52404130
42406640
41673450
56554830
03000000
ENDCHAR
STARTCHAR multiply
ENCODING 215
SWIDTH 421 0
DWIDTH 5 0
BBX 5 5 0 1
BITMAP
252400
407140
354710
535230
131300
ENDCHAR
STARTCHAR Oslash
ENCODING 216
SWIDTH 612 0
DWIDTH 7 0
BBX 7 9 0 -1
BITMAP
15455500
23134320
28791810
40536310
52716130
44556640
54273450
51654830
04200000
ENDCHAR
STARTCHAR Ugrave
ENCODING 217
SWIDTH 583 0
DWIDTH 6 0
BBX 7 12 0 -1
BITMAP
00530000
00440000
00340000
15414400
22412400
54416500
40413400
52404400
42409700
41771800
55557810
03000000
ENDCHAR
STARTCHAR Uacute
ENCODING 218
SWIDTH 583 0
DWIDTH 6 0
BBX 7 12 0 -1
BITMAP
00033000
00144000
00250000
15414400
22412400
54416500
40413400
52404400
42409700
41771800
55557810
03000000
ENDCHAR
STARTCHAR Ucircumflex
ENCODING 219
SWIDTH 583 0
DWIDTH 6 0
BBX 7 12 0 -1
BITMAP
00580000
03354000
02434000
15414400
22412400
54416500
40413400
52404400
42409700
41771800
55557810
03000000
ENDCHAR
STARTCHAR Udieresis
ENCODING 220
SWIDTH 583 0
DWIDTH 6 0
BBX 7 11 0 -1
BITMAP
04546000
03534000
15414400
22412400
54416500
40413400
52404400
42409700
41771800
55557810
03000000
ENDCHAR
STARTCHAR Yacute
ENCODING 221
SWIDTH 484 0
DWIDTH 5 0
BBX 7 10 -1 0
BITMAP
00005100
00043200
03245410
23404050
05277410
01640500
00372200
00426000
00504000
00551000
ENDCHAR
STARTCHAR Thorn
ENCODING 222
SWIDTH 520 0
DWIDTH 6 0
BBX 6 9 0 -1
BITMAP
242000
456200
550543
427514
406536
535450
406400
525000
010000
ENDCHAR
STARTCHAR germandbls
ENCODING 223
SWIDTH 884 0
DWIDTH 10 0
BBX 10 9 0 -1
BITMAP
2464434644
6644575445
5060051600
1741026500
0415005050
0073201741
5491554805
5456444662
1000010000
ENDCHAR
STARTCHAR agrave
ENCODING 224
SWIDTH 507 0
DWIDTH 6 0
BBX 6 11 0 0
BITMAP
035000
033100
005200
034200
041710
075130
136440
415663
536404
426645
561444
ENDCHAR
STARTCHAR aacute
ENCODING 225
SWIDTH 507 0
DWIDTH 6 0
BBX 6 11 0 0
BITMAP
000330
001440
003500
034200
041710
075130
136440
415663
536404
426645
561444
ENDCHAR
STARTCHAR acircumflex
ENCODING 226
SWIDTH 507 0
DWIDTH 6 0
BBX 6 11 0 0
BITMAP
015700
044430
033430
034200
041710
075130
136440
415663
536404
426645
561444
ENDCHAR
STARTCHAR atilde
ENCODING 227
SWIDTH 507 0
DWIDTH 6 0
BBX 6 11 0 0
BITMAP
047552
236540
153530
034200
041710
075130
136440
415663
536404
426645
561444
ENDCHAR
STARTCHAR adieresis
ENCODING 228
SWIDTH 507 0
DWIDTH 6 0
BBX 6 10 0 0
BITMAP
055550
054430
034200
041710
075130
136440
415663
536404
426645
561444
ENDCHAR
STARTCHAR aring
ENCODING 229
SWIDTH 507 0
DWIDTH 6 0
BBX 6 12 0 0
BITMAP
004400
043520
055640
034420
034200
041710
075130
136440
415663
536404
426645
561444
ENDCHAR
STARTCHAR ae
ENCODING 230
SWIDTH 797 0
DWIDTH 9 0
BBX 10 8 -1 0
BITMAP
0001455543
0004054314
0016376432
0041735440
0163634340
0425266210
1435535644
1550346544
ENDCHAR
STARTCHAR ccedilla
ENCODING 231
SWIDTH 515 0
DWIDTH 6 0
BBX 6 11 0 -3
BITMAP
154542
231304
287442
404000
524000
424021
416724
565643
033410
044810
013000
ENDCHAR
STARTCHAR egrave
ENCODING 232
SWIDTH 490 0
DWIDTH 5 0
BBX 6 11 0 0
BITMAP
025000
023300
004300
345542
404314
536430
406420
406340
536200
406652
546451
ENDCHAR
STARTCHAR eacute
ENCODING 233
SWIDTH 490 0
DWIDTH 5 0
BBX 6 11 0 0
BITMAP
000510
004320
004300
345542
404314
536430
406420
406340
536200
406652
546451
ENDCHAR
STARTCHAR ecircumflex
ENCODING 234
SWIDTH 490 0
DWIDTH 5 0
BBX 6 11 0 0
BITMAP
015700
044330
043430
345542
404314
536430
406420
406340
536200
406652
546451
ENDCHAR
STARTCHAR edieresis
ENCODING 235
SWIDTH 490 0
DWIDTH 5 0
BBX 6 10 0 0
BITMAP
054550
053430
345542
404314
536430
406420
406340
536200
406652
546451
ENDCHAR
STARTCHAR igrave
ENCODING 236
SWIDTH 266 0
DWIDTH 3 0
BBX 3 11 0 0
BITMAP
4300
4400
2400
3430
4040
6340
4040
4040
5340
4040
5440
ENDCHAR
STARTCHAR iacute
ENCODING 237
SWIDTH 266 0
DWIDTH 3 0
BBX 4 11 0 0
BITMAP
0051
0432
0430
3430
4040
6340
4040
4040
5340
4040
5440
ENDCHAR
STARTCHAR icircumflex
ENCODING 238
SWIDTH 266 0
DWIDTH 3 0
BBX 4 11 0 0
BITMAP
2650
4631
5252
3430
4040
6340
4040
4040
5340
4040
5440
ENDCHAR
STARTCHAR idieresis
ENCODING 239
SWIDTH 266 0
DWIDTH 3 0
BBX 5 10 -1 0
BITMAP
346440
144420
034300
040400
063400
040400
040400
053400
040400
054400
ENDCHAR
STARTCHAR eth
ENCODING 240
SWIDTH 669 0
DWIDTH 7 0
BBX 9 9 -1 -1
BITMAP
0005650000
0006315000
0006554500
1535634140
1533725550
0006583510
0004405100
0006660000
0000110000
ENDCHAR
STARTCHAR ntilde
ENCODING 241
SWIDTH 598 0
DWIDTH 7 0
BBX 7 11 0 0
BITMAP
00584500
03355400
03447000
34604410
40624210
63557510
40545310
40816310
54755510
40440800
54436810
ENDCHAR
STARTCHAR ograve
ENCODING 242
SWIDTH 612 0
DWIDTH 7 0
BBX 7 12 0 -1
BITMAP
00340000
00440000
00051000
15455500
23130800
28748710
40405310
52404130
42406640
41673450
56554830
03000000
ENDCHAR
STARTCHAR oacute
ENCODING 243
SWIDTH 612 0
DWIDTH 7 0
BBX 7 12 0 -1
BITMAP
00005100
00043200
00053000
15455500
23130800
28748710
40405310
52404130
42406640
41673450
56554830
03000000
ENDCHAR
STARTCHAR ocircumflex
ENCODING 244
SWIDTH 612 0
DWIDTH 7 0
BBX 7 12 0 -1
BITMAP
00364000
01463100
00525100
15455500
23130800
28748710
40405310
52404130
42406640
41673450
56554830
03000000
ENDCHAR
STARTCHAR otilde
ENCODING 245
SWIDTH 612 0
DWIDTH 7 0
BBX 7 12 0 -1
BITMAP
00484500
03355400
02436100
15455500
23130800
28748710
40405310
52404130
42406640
41673450
56554830
03000000
ENDCHAR
STARTCHAR odieresis
ENCODING 246
SWIDTH 612 0
DWIDTH 7 0
BBX 7 11 0 -1
BITMAP
04555200
03535000
15455500
23130800
28748710
40405310
52404130
42406640
41673450
56554830
03000000
ENDCHAR
STARTCHAR divide
ENCODING 247
SWIDTH 457 0
DWIDTH 5 0
BBX 5 7 0 0
BITMAP
024200
034300
446440
403040
248420
040400
014100
ENDCHAR
STARTCHAR oslash
ENCODING 248
SWIDTH 612 0
DWIDTH 7 0
BBX 7 9 0 -1
BITMAP
15455500
23134320
28791810
40536310
52716130
44556640
54273450
51654830
04200000
ENDCHAR
STARTCHAR ugrave
ENCODING 249
SWIDTH 583 0
DWIDTH 6 0
BBX 7 12 0 -1
BITMAP
00530000
00440000
00340000
15414400
22412400
54416500
40413400
52404400
42409700
41771800
55557810
03000000
ENDCHAR
STARTCHAR uacute
ENCODING 250
SWIDTH 583 0
DWIDTH 6 0
BBX 7 12 0 -1
BITMAP
00033000
00144000
00250000
15414400
22412400
54416500
40413400
52404400
42409700
41771800
55557810
03000000
ENDCHAR
STARTCHAR ucircumflex
ENCODING 251
SWIDTH 583 0
DWIDTH 6 0
BBX 7 12 0 -1
BITMAP
00580000
03354000
02434000
15414400
22412400
54416500
40413400
52404400
42409700
41771800
55557810
03000000
ENDCHAR
STARTCHAR udieresis
ENCODING 252
SWIDTH 583 0
DWIDTH 6 0
BBX 7 11 0 -1
BITMAP
04546000
03534000
15414400
22412400
54416500
40413400
52404400
42409700
41771800
55557810
03000000
ENDCHAR
STARTCHAR yacute
ENCODING 253
SWIDTH 484 0
DWIDTH 5 0
BBX 7 10 -1 0
BITMAP
00005100
00043200
03245410
23404050
05277410
01640500
00372200
00426000
00504000
00551000
ENDCHAR
STARTCHAR thorn
ENCODING 254
SWIDTH 520 0
DWIDTH 6 0
BBX 6 9 0 -1
BITMAP
242000
456200
550543
427514
406536
535450
406400
525000
010000
ENDCHAR
STARTCHAR ydieresis
ENCODING 255
SWIDTH 484 0
DWIDTH 5 0
BBX 7 10 -1 0
BITMAP
01555400
00534300
03202410
23404050
05277410
01640500
00372200
00426000
00504000
00551000
ENDCHAR
STARTCHAR Amacron
ENCODING 256
SWIDTH 507 0
DWIDTH 6 0
BBX 6 10 0 0
BITMAP
034410
034410
034200
041710
075130
136440
415663
536404
426645
561444
ENDCHAR
STARTCHAR amacron
ENCODING 257
SWIDTH 507 0
DWIDTH 6 0
BBX 6 10 0 0
BITMAP
034410
034410
034200
041710
075130
136440
415663
536404
426645
561444
ENDCHAR
STARTCHAR Abreve
ENCODING 258
SWIDTH 507 0
DWIDTH 6 0
BBX 6 11 0 0
BITMAP
053430
045640
036510
034200
041710
075130
136440
415663
536404
426645
561444
ENDCHAR
STARTCHAR abreve
ENCODING 259
SWIDTH 507 0
DWIDTH 6 0
BBX 6 11 0 0
BITMAP
053430
045640
036510
034200
041710
075130
136440
415663
536404
426645
561444
ENDCHAR
STARTCHAR Aogonek
ENCODING 260
SWIDTH 507 0
DWIDTH 6 0
BBX 6 11 0 -3
BITMAP
034200
041710
075130
136440
415663
536404
426645
561454
000451
000265
000012
ENDCHAR
STARTCHAR aogonek
ENCODING 261
SWIDTH 507 0
DWIDTH 6 0
BBX 6 11 0 -3
BITMAP
034200
041710
075130
136440
415663
536404
426645
561454
000451
000265
000012
ENDCHAR
STARTCHAR Cacute
ENCODING 262
SWIDTH 515 0
DWIDTH 6 0
BBX 6 12 0 -1
BITMAP
000230
000450
001510
154542
231304
287442
404000
524000
424021
416724
565543
030000
ENDCHAR
STARTCHAR cacute
ENCODING 263
SWIDTH 515 0
DWIDTH 6 0
BBX 6 12 0 -1
BITMAP
000230
000450
001510
154542
231304
287442
404000
524000
424021
416724
565543
030000
ENDCHAR
STARTCHAR Ccircumflex
ENCODING 264
SWIDTH 515 0
DWIDTH 6 0
BBX 6 12 0 -1
BITMAP
004730
013630
015250
154542
231304
287442
404000
524000
424021
416724
565543
030000
ENDCHAR
STARTCHAR ccircumflex
ENCODING 265
SWIDTH 515 0
DWIDTH 6 0
BBX 6 12 0 -1
BITMAP
004730
013630
015250
154542
231304
287442
404000
524000
424021
416724
565543
030000
ENDCHAR
STARTCHAR Cdotaccent
ENCODING 266
SWIDTH 515 0
DWIDTH 6 0
BBX 6 11 0 -1
BITMAP
004420
003510
154542
231304
287442
404000
524000
424021
416724
565543
030000
ENDCHAR
STARTCHAR cdotaccent
ENCODING 267
SWIDTH 515 0
DWIDTH 6 0
BBX 6 11 0 -1
BITMAP
004420
003510
154542
231304
287442
404000
524000
424021
416724
565543
030000
ENDCHAR
STARTCHAR Ccaron
ENCODING 268
SWIDTH 515 0
DWIDTH 6 0
BBX 6 12 0 -1
BITMAP
025551
004540
002610
154542
231304
287442
404000
524000
424021
416724
565543
030000
ENDCHAR
STARTCHAR ccaron
ENCODING 269
SWIDTH 515 0
DWIDTH 6 0
BBX 6 12 0 -1
BITMAP
025551
004540
002610
154542
231304
287442
404000
524000
424021
416724
565543
030000
ENDCHAR
STARTCHAR Dcaron
ENCODING 270
SWIDTH 520 0
DWIDTH 6 0
BBX 6 12 0 -1
BITMAP
054540
033510
005500
375100
450520
547351
405505
404556
538532
404330
547200
002000
ENDCHAR
STARTCHAR dcaron
ENCODING 271
SWIDTH 520 0
DWIDTH 6 0
BBX 6 12 0 -1
BITMAP
054540
033510
005500
375100
450520
547351
405505
404556
538532
404330
547200
002000
ENDCHAR
STARTCHAR Dcroat
ENCODING 272
SWIDTH 669 0
DWIDTH 7 0
BBX 9 9 -1 -1
BITMAP
0005650000
0006315000
0006554500
1535634140
1533725550
0006583510
0004405100
0006660000
0000110000
ENDCHAR
STARTCHAR dcroat
ENCODING 273
SWIDTH 669 0
DWIDTH 7 0
BBX 9 9 -1 -1
BITMAP
0005650000
0006315000
0006554500
1535634140
1533725550
0006583510
0004405100
0006660000
0000110000
ENDCHAR
STARTCHAR Emacron
ENCODING 274
SWIDTH 490 0
DWIDTH 5 0
BBX 6 10 0 0
BITMAP
034410
044410
345542
404314
536430
406420
406340
536200
406652
546451
ENDCHAR
STARTCHAR emacron
ENCODING 275
SWIDTH 490 0
DWIDTH 5 0
BBX 6 10 0 0
BITMAP
034410
044410
345542
404314
536430
406420
406340
536200
406652
546451
ENDCHAR
STARTCHAR Ebreve
ENCODING 276
SWIDTH 490 0
DWIDTH 5 0
BBX 6 11 0 0
BITMAP
053440
045640
026520
345542
404314
536430
406420
406340
536200
406652
546451
ENDCHAR
STARTCHAR ebreve
ENCODING 277
SWIDTH 490 0
DWIDTH 5 0
BBX 6 11 0 0
BITMAP
053440
045640
026520
345542
404314
536430
406420
406340
536200
406652
546451
ENDCHAR
STARTCHAR Edotaccent
ENCODING 278
SWIDTH 490 0
DWIDTH 5 0
BBX 6 10 0 0
BITMAP
015400
005300
345542
404314
536430
406420
406340
536200
406652
546451
ENDCHAR
STARTCHAR edotaccent
ENCODING 279
SWIDTH 490 0
DWIDTH 5 0
BBX 6 10 0 0
BITMAP
015400
005300
345542
404314
536430
406420
406340
536200
406652
546451
ENDCHAR
STARTCHAR Eogonek
ENCODING 280
SWIDTH 490 0
DWIDTH 5 0
BBX 6 11 0 -3
BITMAP
345542
404314
536430
406420
406340
536200
406652
546561
001450
000642
000030
ENDCHAR
STARTCHAR eogonek
ENCODING 281
SWIDTH 490 0
DWIDTH 5 0
BBX 6 11 0 -3
BITMAP
345542
404314
536430
406420
406340
536200
406652
546561
001450
000642
000030
ENDCHAR
STARTCHAR Ecaron
ENCODING 282
SWIDTH 490 0
DWIDTH 5 0
BBX 6 11 0 0
BITMAP
054550
023620
004500
345542
404314
536430
406420
406340
536200
406652
546451
ENDCHAR
STARTCHAR ecaron
ENCODING 283
SWIDTH 490 0
DWIDTH 5 0
BBX 6 11 0 0
BITMAP
054550
023620
004500
345542
404314
536430
406420
406340
536200
406652
546451
ENDCHAR
STARTCHAR Gcircumflex
ENCODING 284
SWIDTH 557 0
DWIDTH 6 0
BBX 6 12 0 -1
BITMAP
004720
023640
015340
154542
231304
287442
404043
524134
424165
416744
565565
030000
ENDCHAR
STARTCHAR gcircumflex
ENCODING 285
SWIDTH 557 0
DWIDTH 6 0
BBX 6 12 0 -1
BITMAP
004720
023640
015340
154542
231304
287442
404043
524134
424165
416744
565565
030000
ENDCHAR
STARTCHAR Gbreve
ENCODING 286
SWIDTH 557 0
DWIDTH 6 0
BBX 6 12 0 -1
BITMAP
045340
044560
016440
154542
231304
287442
404043
524134
424165
416744
565565
030000
ENDCHAR
STARTCHAR gbreve
ENCODING 287
SWIDTH 557 0
DWIDTH 6 0
BBX 6 12 0 -1
BITMAP
045340
044560
016440
154542
231304
287442
404043
524134
424165
416744
565565
030000
ENDCHAR
STARTCHAR Gdotaccent
ENCODING 288
SWIDTH 557 0
DWIDTH 6 0
BBX 6 11 0 -1
BITMAP
004420
003410
154542
231304
287442
404043
524134
424165
416744
565565
030000
ENDCHAR
STARTCHAR gdotaccent
ENCODING 289
SWIDTH 557 0
DWIDTH 6 0
BBX 6 11 0 -1
BITMAP
004420
003410
154542
231304
287442
404043
524134
424165
416744
565565
030000
ENDCHAR
STARTCHAR Gcommaaccent
ENCODING 290
SWIDTH 557 0
DWIDTH 6 0
BBX 6 11 0 -3
BITMAP
154542
231304
287442
404043
524134
424165
416744
565565
033300
014500
025000
ENDCHAR
STARTCHAR gcommaaccent
ENCODING 291
SWIDTH 557 0
DWIDTH 6 0
BBX 6 11 0 -3
BITMAP
154542
231304
287442
404043
524134
424165
416744
565565
033300
014500
025000
ENDCHAR
STARTCHAR Hcircumflex
ENCODING 292
SWIDTH 611 0
DWIDTH 7 0
BBX 7 11 0 0
BITMAP
00472000
02364000
01534000
34305510
40404400
63407500
40404510
40637440
53814540
40745400
54415600
ENDCHAR
STARTCHAR hcircumflex
ENCODING 293
SWIDTH 611 0
DWIDTH 7 0
BBX 7 11 0 0
BITMAP
00472000
02364000
01534000
34305510
40404400
63407500
40404510
40637440
53814540
40745400
54415600
ENDCHAR
STARTCHAR Hbar
ENCODING 294
SWIDTH 706 0
DWIDTH 8 0
BBX 8 8 0 0
BITMAP
04412440
25256562
47530414
25345473
04335633
06561553
04457140
06514440
ENDCHAR
STARTCHAR hbar
ENCODING 295
SWIDTH 706 0
DWIDTH 8 0
BBX 8 8 0 0
BITMAP
04412440
25256562
47530414
25345473
04335633
06561553
04457140
06514440
ENDCHAR
STARTCHAR Itilde
ENCODING 296
SWIDTH 266 0
DWIDTH 3 0
BBX 5 11 -1 0
BITMAP
058450
335540
243700
034300
040400
063400
040400
040400
053400
040400
054400
ENDCHAR
STARTCHAR itilde
ENCODING 297
SWIDTH 266 0
DWIDTH 3 0
BBX 5 11 -1 0
BITMAP
058450
335540
243700
034300
040400
063400
040400
040400
053400
040400
054400
ENDCHAR
STARTCHAR Imacron
ENCODING 298
SWIDTH 266 0
DWIDTH 3 0
BBX 3 10 0 0
BITMAP
4440
4450
3430
4040
6340
4040
4040
5340
4040
5440
ENDCHAR
STARTCHAR imacron
ENCODING 299
SWIDTH 266 0
DWIDTH 3 0
BBX 3 10 0 0
BITMAP
4440
4450
3430
4040
6340
4040
4040
5340
4040
5440
ENDCHAR
STARTCHAR Ibreve
ENCODING 300
SWIDTH 266 0
DWIDTH 3 0
BBX 5 11 -1 0
BITMAP
152530
046720
055500
034300
040400
063400
040400
040400
053400
040400
054400
ENDCHAR
STARTCHAR ibreve
ENCODING 301
SWIDTH 266 0
DWIDTH 3 0
BBX 5 11 -1 0
BITMAP
152530
046720
055500
034300
040400
063400
040400
040400
053400
040400
054400
ENDCHAR
STARTCHAR Iogonek
ENCODING 302
SWIDTH 266 0
DWIDTH 3 0
BBX 3 11 0 -3
BITMAP
3430
4040
6340
4040
4040
5340
4040
5440
4400
5530
0320
ENDCHAR
STARTCHAR iogonek
ENCODING 303
SWIDTH 266 0
DWIDTH 3 0
BBX 3 11 0 -3
BITMAP
3430
4040
6340
4040
4040
5340
4040
5440
4400
5530
0320
ENDCHAR
STARTCHAR Idotaccent
ENCODING 304
SWIDTH 266 0
DWIDTH 3 0
BBX 3 10 0 0
BITMAP
3430
2420
3430
4040
6340
4040
4040
5340
4040
5440
ENDCHAR
STARTCHAR dotlessi
ENCODING 305
SWIDTH 266 0
DWIDTH 3 0
BBX 3 8 0 0
BITMAP
3430
4040
6340
4040
4040
5340
4040
5440
ENDCHAR
STARTCHAR IJ
ENCODING 306
SWIDTH 750 0
DWIDTH 8 0
BBX 8 9 0 -1
BITMAP
34300154
40400044
63400165
40400225
40555134
53643655
40426344
54404175
00000410
ENDCHAR
STARTCHAR ij
ENCODING 307
SWIDTH 749 0
DWIDTH 8 0
BBX 8 9 0 -1
BITMAP
34300154
40400044
63400165
40400225
40555134
53643655
40426344
54404175
00000410
ENDCHAR
STARTCHAR Jcircumflex
ENCODING 308
SWIDTH 484 0
DWIDTH 5 0
BBX 7 12 -1 -1
BITMAP
00005800
00043430
00033430
00005500
00004400
00017500
00014500
05504400
15266500
02725400
00326600
00041000
ENDCHAR
STARTCHAR jcircumflex
ENCODING 309
SWIDTH 482 0
DWIDTH 5 0
BBX 7 12 -1 -1
BITMAP
00005800
00043430
00033430
00005500
00004400
00017500
00014500
05504400
15266500
02725400
00326600
00041000
ENDCHAR
STARTCHAR Kcommaaccent
ENCODING 310
SWIDTH 541 0
DWIDTH 6 0
BBX 7 11 0 -3
BITMAP
34303200
40423410
53672400
40706000
40644000
53875000
40441400
54434400
00331000
01440000
03400000
ENDCHAR
STARTCHAR kcommaaccent
ENCODING 311
SWIDTH 541 0
DWIDTH 6 0
BBX 7 11 0 -3
BITMAP
34303200
40423410
53672400
40706000
40644000
53875000
40441400
54434400
00331000
01440000
03400000
ENDCHAR
STARTCHAR kgreenlandic
ENCODING 312
SWIDTH 541 0
DWIDTH 6 0
BBX 7 9 0 -1
BITMAP
34303200
40423410
53672400
40706000
40644000
53875000
40441400
54434400
00001000
ENDCHAR
STARTCHAR Lacute
ENCODING 313
SWIDTH 467 0
DWIDTH 5 0
BBX 6 11 0 0
BITMAP
004200
024300
034000
343000
404000
634000
404000
404000
535000
409443
548453
ENDCHAR
STARTCHAR lacute
ENCODING 314
SWIDTH 467 0
DWIDTH 5 0
BBX 6 11 0 0
BITMAP
004200
024300
034000
343000
404000
634000
404000
404000
535000
409443
548453
ENDCHAR
STARTCHAR Lcommaaccent
ENCODING 315
SWIDTH 467 0
DWIDTH 5 0
BBX 6 11 0 -3
BITMAP
343000
404000
634000
404000
404000
535000
409443
548453
005100
043200
043000
ENDCHAR
STARTCHAR lcommaaccent
ENCODING 316
SWIDTH 467 0
DWIDTH 5 0
BBX 6 11 0 -3
BITMAP
343000
404000
634000
404000
404000
535000
409443
548453
005100
043200
043000
ENDCHAR
STARTCHAR Lcaron
ENCODING 317
SWIDTH 467 0
DWIDTH 5 0
BBX 6 9 0 0
BITMAP
000340
343450
405500
634000
404000
404000
535000
409443
548453
ENDCHAR
STARTCHAR lcaron
ENCODING 318
SWIDTH 467 0
DWIDTH 5 0
BBX 6 9 0 0
BITMAP
000340
343450
405500
634000
404000
404000
535000
409443
548453
ENDCHAR
STARTCHAR Ldot
ENCODING 319
SWIDTH 611 0
DWIDTH 7 0
BBX 7 8 0 0
BITMAP
34300000
40400000
63400000
40403430
40402430
53500000
40944300
54845300
ENDCHAR
STARTCHAR ldotaccent
ENCODING 320
SWIDTH 611 0
DWIDTH 7 0
BBX 7 8 0 0
BITMAP
34300000
40400000
63400000
40403430
40402430
53500000
40944300
54845300
ENDCHAR
STARTCHAR Lslash
ENCODING 321
SWIDTH 505 0
DWIDTH 6 0
BBX 7 8 -1 0
BITMAP
00550000
00440000
01650000
05456000
23445000
04660000
01357450
02465440
ENDCHAR
STARTCHAR lslash
ENCODING 322
SWIDTH 505 0
DWIDTH 6 0
BBX 7 8 -1 0
BITMAP
00550000
00440000
01650000
05456000
23445000
04660000
01357450
02465440
ENDCHAR
STARTCHAR Nacute
ENCODING 323
SWIDTH 598 0
DWIDTH 7 0
BBX 7 11 0 0
BITMAP
00024000
00045000
00151000
34604410
40624210
63557510
40545310
40816310
54755510
40440800
54436810
ENDCHAR
STARTCHAR nacute
ENCODING 324
SWIDTH 598 0
DWIDTH 7 0
BBX 7 11 0 0
BITMAP
00024000
00045000
00151000
34604410
40624210
63557510
40545310
40816310
54755510
40440800
54436810
ENDCHAR
STARTCHAR Ncommaaccent
ENCODING 325
SWIDTH 598 0
DWIDTH 7 0
BBX 7 11 0 -3
BITMAP
34604410
40624210
63557510
40545310
40816310
54755510
40440800
54436810
00240000
00450000
01510000
ENDCHAR
STARTCHAR ncommaaccent
ENCODING 326
SWIDTH 598 0
DWIDTH 7 0
BBX 7 11 0 -3
BITMAP
34604410
40624210
63557510
40545310
40816310
54755510
40440800
54436810
00240000
00450000
01510000
ENDCHAR
STARTCHAR Ncaron
ENCODING 327
SWIDTH 598 0
DWIDTH 7 0
BBX 7 11 0 0
BITMAP
02555100
00454000
00261000
34604410
40624210
63557510
40545310
40816310
54755510
40440800
54436810
ENDCHAR
STARTCHAR ncaron
ENCODING 328
SWIDTH 598 0
DWIDTH 7 0
BBX 7 11 0 0
BITMAP
02555100
00454000
00261000
34604410
40624210
63557510
40545310
40816310
54755510
40440800
54436810
ENDCHAR
STARTCHAR napostrophe
ENCODING 329
SWIDTH 807 0
DWIDTH 9 0
BBX 9 8 0 0
BITMAP
1515523430
5423444040
5236566340
0022518040
0022717040
0035572640
0032440540
0034516840
ENDCHAR
STARTCHAR Eng
ENCODING 330
SWIDTH 595 0
DWIDTH 7 0
BBX 7 11 0 -3
BITMAP
34603500
40624220
54554310
40548520
40916400
53754310
40440810
54435700
02456720
05033600
04441000
ENDCHAR
STARTCHAR eng
ENCODING 331
SWIDTH 595 0
DWIDTH 7 0
BBX 7 11 0 -3
BITMAP
34603500
40624220
54554310
40548520
40916400
53754310
40440810
54435700
02456720
05033600
04441000
ENDCHAR
STARTCHAR Omacron
ENCODING 332
SWIDTH 612 0
DWIDTH 7 0
BBX 7 11 0 -1
BITMAP
00444000
00444000
15455500
23130800
28748710
40405310
52404130
42406640
41673450
56554830
03000000
ENDCHAR
STARTCHAR omacron
ENCODING 333
SWIDTH 612 0
DWIDTH 7 0
BBX 7 11 0 -1
BITMAP
00444000
00444000
15455500
23130800
28748710
40405310
52404130
42406640
41673450
56554830
03000000
ENDCHAR
STARTCHAR Obreve
ENCODING 334
SWIDTH 612 0
DWIDTH 7 0
BBX 7 12 0 -1
BITMAP
03515200
01477100
00645000
15455500
23130800
28748710
40405310
52404130
42406640
41673450
56554830
03000000
ENDCHAR
STARTCHAR obreve
ENCODING 335
SWIDTH 612 0
DWIDTH 7 0
BBX 7 12 0 -1
BITMAP
03515200
01477100
00645000
15455500
23130800
28748710
40405310
52404130
42406640
41673450
56554830
03000000
ENDCHAR
STARTCHAR Ohungarumlaut
ENCODING 336
SWIDTH 612 0
DWIDTH 7 0
BBX 7 12 0 -1
BITMAP
00052500
00437410
00435200
15455500
23130800
28748710
40405310
52404130
42406640
41673450
56554830
03000000
ENDCHAR
STARTCHAR ohungarumlaut
ENCODING 337
SWIDTH 612 0
DWIDTH 7 0
BBX 7 12 0 -1
BITMAP
00052500
00437410
00435200
15455500
23130800
28748710
40405310
52404130
42406640
41673450
56554830
03000000
ENDCHAR
STARTCHAR OE
ENCODING 338
SWIDTH 831 0
DWIDTH 9 0
BBX 10 9 0 -1
BITMAP
1545666450
2313064231
2874966330
4040425500
5240425510
4240845200
4167277460
5655786450
0300000000
ENDCHAR
STARTCHAR oe
ENCODING 339
SWIDTH 831 0
DWIDTH 9 0
BBX 10 9 0 -1
BITMAP
1545666450
2313064231
2874966330
4040425500
5240425510
4240845200
4167277460
5655786450
0300000000
ENDCHAR
STARTCHAR Racute
ENCODING 340
SWIDTH 532 0
DWIDTH 6 0
BBX 6 12 0 -1
BITMAP
000330
001440
002500
264300
460544
527524
527536
408360
538451
404505
514055
130010
ENDCHAR
STARTCHAR racute
ENCODING 341
SWIDTH 532 0
DWIDTH 6 0
BBX 6 12 0 -1
BITMAP
000330
001440
002500
264300
460544
527524
527536
408360
538451
404505
514055
130010
ENDCHAR
STARTCHAR Rcommaaccent
ENCODING 342
SWIDTH 532 0
DWIDTH 6 0
BBX 6 11 0 -3
BITMAP
264300
460544
527524
527536
408360
538451
404505
514055
134210
024400
034000
ENDCHAR
STARTCHAR rcommaaccent
ENCODING 343
SWIDTH 532 0
DWIDTH 6 0
BBX 6 11 0 -3
BITMAP
264300
460544
527524
527536
408360
538451
404505
514055
134210
024400
034000
ENDCHAR
STARTCHAR Rcaron
ENCODING 344
SWIDTH 532 0
DWIDTH 6 0
BBX 6 12 0 -1
BITMAP
055550
023630
004600
264300
460544
527524
527536
408360
538451
404505
514055
130010
ENDCHAR
STARTCHAR rcaron
ENCODING 345
SWIDTH 532 0
DWIDTH 6 0
BBX 6 12 0 -1
BITMAP
055550
023630
004600
264300
460544
527524
527536
408360
538451
404505
514055
130010
ENDCHAR
STARTCHAR Sacute
ENCODING 346
SWIDTH 442 0
DWIDTH 5 0
BBX 5 12 0 -1
BITMAP
002300
004500
015100
246440
664450
506000
174100
041500
007320
549150
545630
100000
ENDCHAR
STARTCHAR sacute
ENCODING 347
SWIDTH 442 0
DWIDTH 5 0
BBX 5 12 0 -1
BITMAP
002300
004500
015100
246440
664450
506000
174100
041500
007320
549150
545630
100000
ENDCHAR
STARTCHAR Scircumflex
ENCODING 348
SWIDTH 442 0
DWIDTH 5 0
BBX 5 12 0 -1
BITMAP
047300
136300
152500
246440
664450
506000
174100
041500
007320
549150
545630
100000
ENDCHAR
STARTCHAR scircumflex
ENCODING 349
SWIDTH 442 0
DWIDTH 5 0
BBX 5 12 0 -1
BITMAP
047300
136300
152500
246440
664450
506000
174100
041500
007320
549150
545630
100000
ENDCHAR
STARTCHAR Scedilla
ENCODING 350
SWIDTH 442 0
DWIDTH 5 0
BBX 5 11 0 -3
BITMAP
246440
664450
506000
174100
041500
007320
549150
546830
125400
066400
020000
ENDCHAR
STARTCHAR scedilla
ENCODING 351
SWIDTH 442 0
DWIDTH 5 0
BBX 5 11 0 -3
BITMAP
246440
664450
506000
174100
041500
007320
549150
546830
125400
066400
020000
ENDCHAR
STARTCHAR Scaron
ENCODING 352
SWIDTH 442 0
DWIDTH 5 0
BBX 5 13 0 -1
BITMAP
000100
256510
045500
026100
246440
664450
506000
174100
041500
007320
549150
545630
100000
ENDCHAR
STARTCHAR scaron
ENCODING 353
SWIDTH 442 0
DWIDTH 5 0
BBX 5 13 0 -1
BITMAP
000100
256510
045500
026100
246440
664450
506000
174100
041500
007320
549150
545630
100000
ENDCHAR
STARTCHAR Tcommaaccent
ENCODING 354
SWIDTH 453 0
DWIDTH 5 0
BBX 6 11 -1 -3
BITMAP
054645
142435
036252
005440
004040
005450
004040
005440
002400
004500
015100
ENDCHAR
STARTCHAR tcommaaccent
ENCODING 355
SWIDTH 453 0
DWIDTH 5 0
BBX 6 11 -1 -3
BITMAP
054645
142435
036252
005440
004040
005450
004040
005440
002400
004500
015100
ENDCHAR
STARTCHAR Tcaron
ENCODING 356
SWIDTH 453 0
DWIDTH 5 0
BBX 6 12 -1 0
BITMAP
000010
006553
004450
002530
054645
142435
036252
005440
004040
005450
004040
005440
ENDCHAR
STARTCHAR tcaron
ENCODING 357
SWIDTH 453 0
DWIDTH 5 0
BBX 6 12 -1 0
BITMAP
000010
006553
004450
002530
054645
142435
036252
005440
004040
005450
004040
005440
ENDCHAR
STARTCHAR Tbar
ENCODING 358
SWIDTH 455 0
DWIDTH 5 0
BBX 6 9 -1 -1
BITMAP
054545
140314
036463
018560
040224
026562
004040
005250
000200
ENDCHAR
STARTCHAR tbar
ENCODING 359
SWIDTH 455 0
DWIDTH 5 0
BBX 6 9 -1 -1
BITMAP
054545
140314
036463
018560
040224
026562
004040
005250
000200
ENDCHAR
STARTCHAR Utilde
ENCODING 360
SWIDTH 583 0
DWIDTH 6 0
BBX 7 12 0 -1
BITMAP
00584500
03355400
03437000
15414400
22412400
54416500
40413400
52404400
42409700
41771800
55557810
03000000
ENDCHAR
STARTCHAR utilde
ENCODING 361
SWIDTH 583 0
DWIDTH 6 0
BBX 7 12 0 -1
BITMAP
00584500
03355400
03437000
15414400
22412400
54416500
40413400
52404400
42409700
41771800
55557810
03000000
ENDCHAR
STARTCHAR Umacron
ENCODING 362
SWIDTH 583 0
DWIDTH 6 0
BBX 7 11 0 -1
BITMAP
00443000
01444000
15414400
22412400
54416500
40413400
52404400
42409700
41771800
55557810
03000000
ENDCHAR
STARTCHAR umacron
ENCODING 363
SWIDTH 583 0
DWIDTH 6 0
BBX 7 11 0 -1
BITMAP
00443000
01444000
15414400
22412400
54416500
40413400
52404400
42409700
41771800
55557810
03000000
ENDCHAR
STARTCHAR Ubreve
ENCODING 364
SWIDTH 583 0
DWIDTH 6 0
BBX 7 12 0 -1
BITMAP
04435000
04456000
01644000
15414400
22412400
54416500
40413400
52404400
42409700
41771800
55557810
03000000
ENDCHAR
STARTCHAR ubreve
ENCODING 365
SWIDTH 583 0
DWIDTH 6 0
BBX 7 12 0 -1
BITMAP
04435000
04456000
01644000
15414400
22412400
54416500
40413400
52404400
42409700
41771800
55557810
03000000
ENDCHAR
STARTCHAR Uring
ENCODING 366
SWIDTH 583 0
DWIDTH 6 0
BBX 7 13 0 -1
BITMAP
00341000
01353000
04566000
01443000
15414400
22412400
54416500
40413400
52404400
42409700
41771800
55557810
03000000
ENDCHAR
STARTCHAR uring
ENCODING 367
SWIDTH 583 0
DWIDTH 6 0
BBX 7 13 0 -1
BITMAP
00341000
01353000
04566000
01443000
15414400
22412400
54416500
40413400
52404400
42409700
41771800
55557810
03000000
ENDCHAR
STARTCHAR Uhungarumlaut
ENCODING 368
SWIDTH 583 0
DWIDTH 6 0
BBX 7 12 0 -1
BITMAP
00243300
00464400
01535000
15414400
22412400
54416500
40413400
52404400
42409700
41771800
55557810
03000000
ENDCHAR
STARTCHAR uhungarumlaut
ENCODING 369
SWIDTH 583 0
DWIDTH 6 0
BBX 7 12 0 -1
BITMAP
00243300
00464400
01535000
15414400
22412400
54416500
40413400
52404400
42409700
41771800
55557810
03000000
ENDCHAR
STARTCHAR Uogonek
ENCODING 370
SWIDTH 583 0
DWIDTH 6 0
BBX 7 11 0 -3
BITMAP
15414400
22412400
54416500
40413400
52404400
42409700
41771800
55557810
03014400
00018420
00001500
ENDCHAR
STARTCHAR uogonek
ENCODING 371
SWIDTH 583 0
DWIDTH 6 0
BBX 7 11 0 -3
BITMAP
15414400
22412400
54416500
40413400
52404400
42409700
41771800
55557810
03014400
00018420
00001500
ENDCHAR
STARTCHAR Wcircumflex
ENCODING 372
SWIDTH 735 0
DWIDTH 8 0
BBX 8 11 0 -1
BITMAP
00058000
00434400
34344443
54056134
42492624
63754824
22715614
07537642
04444440
05764350
01200210
ENDCHAR
STARTCHAR wcircumflex
ENCODING 373
SWIDTH 735 0
DWIDTH 8 0
BBX 8 11 0 -1
BITMAP
00058000
00434400
34344443
54056134
42492624
63754824
22715614
07537642
04444440
05764350
01200210
ENDCHAR
STARTCHAR Ycircumflex
ENCODING 374
SWIDTH 484 0
DWIDTH 5 0
BBX 7 11 -1 0
BITMAP
00256000
00463200
00425200
03202410
23404050
05277410
01640500
00372200
00426000
00504000
00551000
ENDCHAR
STARTCHAR ycircumflex
ENCODING 375
SWIDTH 484 0
DWIDTH 5 0
BBX 7 11 -1 0
BITMAP
00256000
00463200
00425200
03202410
23404050
05277410
01640500
00372200
00426000
00504000
00551000
ENDCHAR
STARTCHAR Ydieresis
ENCODING 376
SWIDTH 484 0
DWIDTH 5 0
BBX 7 10 -1 0
BITMAP
01555400
00534300
03202410
23404050
05277410
01640500
00372200
00426000
00504000
00551000
ENDCHAR
STARTCHAR Zacute
ENCODING 377
SWIDTH 458 0
DWIDTH 5 0
BBX 6 11 -1 0
BITMAP
000050
000441
000520
024543
040317
014A36
002351
007040
032610
141844
057544
ENDCHAR
STARTCHAR zacute
ENCODING 378
SWIDTH 458 0
DWIDTH 5 0
BBX 6 11 -1 0
BITMAP
000050
000441
000520
024543
040317
014A36
002351
007040
032610
141844
057544
ENDCHAR
STARTCHAR Zdotaccent
ENCODING 379
SWIDTH 458 0
DWIDTH 5 0
BBX 6 10 -1 0
BITMAP
002440
001530
024543
040317
014A36
002351
007040
032610
141844
057544
ENDCHAR
STARTCHAR zdotaccent
ENCODING 380
SWIDTH 458 0
DWIDTH 5 0
BBX 6 10 -1 0
BITMAP
002440
001530
024543
040317
014A36
002351
007040
032610
141844
057544
ENDCHAR
STARTCHAR Zcaron
ENCODING 381
SWIDTH 458 0
DWIDTH 5 0
BBX 6 12 -1 0
BITMAP
000010
005553
004450
002520
024543
040317
014A36
002351
007040
032610
141844
057544
ENDCHAR
STARTCHAR zcaron
ENCODING 382
SWIDTH 458 0
DWIDTH 5 0
BBX 6 12 -1 0
BITMAP
000010
005553
004450
002520
024543
040317
014A36
002351
007040
032610
141844
057544
ENDCHAR
STARTCHAR AEacute
ENCODING 508
SWIDTH 797 0
DWIDTH 9 0
BBX 10 11 -1 0
BITMAP
0000005100
0000043200
0000053000
0001455543
0004054314
0016376432
0041735440
0163634340
0425266210
1435535644
1550346544
ENDCHAR
STARTCHAR aeacute
ENCODING 509
SWIDTH 797 0
DWIDTH 9 0
BBX 10 11 -1 0
BITMAP
0000005100
0000043200
0000053000
0001455543
0004054314
0016376432
0041735440
0163634340
0425266210
1435535644
1550346544
ENDCHAR
STARTCHAR Oslashacute
ENCODING 510
SWIDTH 612 0
DWIDTH 7 0
BBX 7 12 0 -1
BITMAP
00015000
00044100
00052000
15455500
23134320
28791810
40536310
52716130
44556640
54273450
51654830
04200000
ENDCHAR
STARTCHAR oslashacute
ENCODING 511
SWIDTH 612 0
DWIDTH 7 0
BBX 7 12 0 -1
BITMAP
00015000
00044100
00052000
15455500
23134320
28791810
40536310
52716130
44556640
54273450
51654830
04200000
ENDCHAR
STARTCHAR dotlessj
ENCODING 567
SWIDTH 482 0
DWIDTH 5 0
BBX 6 9 -1 -1
BITMAP
000055
000044
000175
000145
055044
152665
027254
003266
000410
ENDCHAR
STARTCHAR circumflex
ENCODING 710
SWIDTH 308 0
DWIDTH 3 0
BBX 4 3 0 8
BITMAP
2560
4632
4252
ENDCHAR
STARTCHAR caron
ENCODING 711
SWIDTH 310 0
DWIDTH 3 0
BBX 4 4 0 8
BITMAP
0010
6553
4450
1530
ENDCHAR
STARTCHAR breve
ENCODING 728
SWIDTH 333 0
DWIDTH 4 0
BBX 4 3 0 8
BITMAP
5343
4564
3651
ENDCHAR
STARTCHAR dotaccent
ENCODING 729
SWIDTH 166 0
DWIDTH 2 0
BBX 2 2 0 8
BITMAP
55
44
ENDCHAR
STARTCHAR ring
ENCODING 730
SWIDTH 309 0
DWIDTH 3 0
BBX 4 4 0 8
BITMAP
0430
4531
6563
3441
ENDCHAR
STARTCHAR ogonek
ENCODING 731
SWIDTH 226 0
DWIDTH 2 0
BBX 3 4 0 -3
BITMAP
3500
4400
6530
0410
ENDCHAR
STARTCHAR tilde
ENCODING 732
SWIDTH 410 0
DWIDTH 5 0
BBX 5 3 0 8
BITMAP
256540
464510
425500
ENDCHAR
STARTCHAR hungarumlaut
ENCODING 733
SWIDTH 361 0
DWIDTH 4 0
BBX 4 3 0 8
BITMAP
1533
4465
5351
ENDCHAR
STARTCHAR uni0312
ENCODING 786
SWIDTH 202 0
DWIDTH 2 0
BBX 3 3 0 5
BITMAP
1510
5410
5200
ENDCHAR
STARTCHAR uni0315
ENCODING 789
SWIDTH 202 0
DWIDTH 2 0
BBX 3 3 0 5
BITMAP
1510
5410
5200
ENDCHAR
STARTCHAR uni0326
ENCODING 806
SWIDTH 201 0
DWIDTH 2 0
BBX 3 3 0 -3
BITMAP
1500
4410
5200
ENDCHAR
STARTCHAR Wgrave
ENCODING 7808
SWIDTH 735 0
DWIDTH 8 0
BBX 8 11 0 -1
BITMAP
00151000
00134000
34033043
54056134
42492624
63754824
22715614
07537642
04444440
05764350
01200210
ENDCHAR
STARTCHAR wgrave
ENCODING 7809
SWIDTH 735 0
DWIDTH 8 0
BBX 8 11 0 -1
BITMAP
00151000
00134000
34033043
54056134
42492624
63754824
22715614
07537642
04444440
05764350
01200210
ENDCHAR
STARTCHAR Wacute
ENCODING 7810
SWIDTH 735 0
DWIDTH 8 0
BBX 8 11 0 -1
BITMAP
00003300
00014400
34025043
54056134
42492624
63754824
22715614
07537642
04444440
05764350
01200210
ENDCHAR
STARTCHAR wacute
ENCODING 7811
SWIDTH 735 0
DWIDTH 8 0
BBX 8 11 0 -1
BITMAP
00003300
00014400
34025043
54056134
42492624
63754824
22715614
07537642
04444440
05764350
01200210
ENDCHAR
STARTCHAR Wdieresis
ENCODING 7812
SWIDTH 735 0
DWIDTH 8 0
BBX 8 10 0 -1
BITMAP
00554600
34444443
54056134
42492624
63754824
22715614
07537642
04444440
05764350
01200210
ENDCHAR
STARTCHAR wdieresis
ENCODING 7813
SWIDTH 735 0
DWIDTH 8 0
BBX 8 10 0 -1
BITMAP
00554600
34444443
54056134
42492624
63754824
22715614
07537642
04444440
05764350
01200210
ENDCHAR
STARTCHAR Ygrave
ENCODING 7922
SWIDTH 484 0
DWIDTH 5 0
BBX 7 10 -1 0
BITMAP
00340000
00441000
03254410
23404050
05277410
01640500
00372200
00426000
00504000
00551000
ENDCHAR
STARTCHAR ygrave
ENCODING 7923
SWIDTH 484 0
DWIDTH 5 0
BBX 7 10 -1 0
BITMAP
00340000
00441000
03254410
23404050
05277410
01640500
00372200
00426000
00504000
00551000
ENDCHAR
STARTCHAR endash
ENCODING 8211
SWIDTH 591 0
DWIDTH 7 0
BBX 7 3 0 2
BITMAP
44545410
42323230
12323300
ENDCHAR
STARTCHAR emdash
ENCODING 8212
SWIDTH 726 0
DWIDTH 8 0
BBX 8 3 0 2
BITMAP
34454543
42231314
12233332
ENDCHAR
STARTCHAR quoteleft
ENCODING 8216
SWIDTH 291 0
DWIDTH 3 0
BBX 4 5 0 3
BITMAP
0551
2640
4140
5310
2400
ENDCHAR
STARTCHAR quoteright
ENCODING 8217
SWIDTH 291 0
DWIDTH 3 0
BBX 4 5 0 3
BITMAP
0551
2640
4140
5310
2400
ENDCHAR
STARTCHAR quotesinglbase
ENCODING 8218
SWIDTH 228 0
DWIDTH 3 0
BBX 4 4 -1 -2
BITMAP
0140
0413
3150
0410
ENDCHAR
STARTCHAR quotedblleft
ENCODING 8220
SWIDTH 532 0
DWIDTH 6 0
BBX 6 6 0 3
BITMAP
000010
055255
264624
415432
535240
240420
ENDCHAR
STARTCHAR quotedblright
ENCODING 8221
SWIDTH 532 0
DWIDTH 6 0
BBX 6 6 0 3
BITMAP
000010
055255
264624
415432
535240
240420
ENDCHAR
STARTCHAR quotedblbase
ENCODING 8222
SWIDTH 448 0
DWIDTH 5 0
BBX 6 4 -1 -2
BITMAP
014042
041625
315432
041230
ENDCHAR
STARTCHAR dagger
ENCODING 8224
SWIDTH 453 0
DWIDTH 5 0
BBX 5 10 0 -1
BITMAP
015100
040400
470640
464440
260520
040400
054400
040400
040400
025200
ENDCHAR
STARTCHAR daggerdbl
ENCODING 8225
SWIDTH 462 0
DWIDTH 5 0
BBX 5 10 0 -1
BITMAP
015200
040400
470640
454540
260520
040400
474650
560650
150400
025200
ENDCHAR
STARTCHAR bullet
ENCODING 8226
SWIDTH 275 0
DWIDTH 3 0
BBX 3 2 0 3
BITMAP
3430
3430
ENDCHAR
STARTCHAR ellipsis
ENCODING 8230
SWIDTH 605 0
DWIDTH 7 0
BBX 7 3 0 -1
BITMAP
34343420
55445240
11020200
ENDCHAR
STARTCHAR perthousand
ENCODING 8240
SWIDTH 1249 0
DWIDTH 14 0
BBX 14 8 0 0
BITMAP
23320300000000
45363130000000
33334310000000
64434522202220
23443354435343
00014434533453
00031354345433
00024153735372
ENDCHAR
STARTCHAR guilsinglleft
ENCODING 8249
SWIDTH 359 0
DWIDTH 4 0
BBX 4 6 0 1
BITMAP
0030
0424
5042
6540
1515
0041
ENDCHAR
STARTCHAR guilsinglright
ENCODING 8250
SWIDTH 359 0
DWIDTH 4 0
BBX 4 6 0 1
BITMAP
1300
5240
2405
0556
5151
1400
ENDCHAR
STARTCHAR fraction
ENCODING 8260
SWIDTH 266 0
DWIDTH 3 0
BBX 3 8 0 0
BITMAP
0220
0340
0430
2340
4120
4500
3300
4300
ENDCHAR
STARTCHAR Euro
ENCODING 8364
SWIDTH 690 0
DWIDTH 8 0
BBX 8 9 0 -1
BITMAP
00345540
00412122
04857440
05422000
45740000
53551030
13257432
01765451
00210000
ENDCHAR
STARTCHAR partialdiff
ENCODING 8706
SWIDTH 519 0
DWIDTH 6 0
BBX 7 9 -1 -1
BITMAP
00045100
00041300
00043600
00272400
03615500
24666330
07036040
01445440
00003000
ENDCHAR
STARTCHAR minus
ENCODING 8722
SWIDTH 467 0
DWIDTH 5 0
BBX 5 3 0 2
BITMAP
345440
403040
244320
ENDCHAR
STARTCHAR fi
ENCODING 64257
SWIDTH 741 0
DWIDTH 8 0
BBX 8 8 0 0
BITMAP
34554344
40431624
53643454
40642314
40634314
53520445
40400404
54400445
ENDCHAR
STARTCHAR fl
ENCODING 64258
SWIDTH 942 0
DWIDTH 10 0
BBX 11 8 0 0
BITMAP
345543440000
404316240000
536434540000
406423140000
406343140000
535204450000
404004066440
544004475440
ENDCHAR
STARTCHAR .notdef
ENCODING -1
SWIDTH 200 0
DWIDTH 2 0
BBX 1 1 0 0
BITMAP
00
ENDCHAR
STARTCHAR .null
ENCODING -1
SWIDTH 0 0
DWIDTH 0 0
BBX 1 1 0 0
BITMAP
00
ENDCHAR
STARTCHAR nonmarkingreturn
ENCODING -1
SWIDTH 200 0
DWIDTH 2 0
BBX 1 1 0 0
BITMAP
00
ENDCHAR
ENDFONT
